<svg width="450" height="20" xmlns="http://www.w3.org/2000/svg">
 <!-- Created with Method Draw - http://github.com/duopixel/Method-Draw/ -->
 <g>
  <title>background</title>
  <rect fill="none" id="canvas_background" height="22" width="452" y="-1" x="-1"/>
  <g display="none" overflow="visible" y="0" x="0" height="100%" width="100%" id="canvasGrid">
   <rect fill="url(#gridpattern)" stroke-width="0" y="0" x="0" height="100%" width="100%"/>
  </g>
 </g>
 <g>
  <title>Layer 1</title>
  <line stroke-linecap="undefined" stroke-linejoin="undefined" id="svg_1" y2="9.296876" x2="9.729757" y1="8.842329" x1="441.094749" stroke-width="10" stroke="#000" fill="none"/>
  <path d="m438.349457,12.98002c0,0 0,0 0,-0.206185c0,-0.206185 0,-0.206185 0,-0.41237c0,0 0.206177,-0.206189 0.412354,-0.412371c0.412384,-0.412377 0.618561,-0.41237 0.824738,-0.618555c0,0 0.206177,0 0.206177,-0.206185c0,0 -0.063202,-0.0946 0.206207,-0.206184c0.190491,-0.078896 0.206177,-0.206185 0.206177,-0.206185c0,0 0,-0.206185 0,-0.206185c0,-0.206184 0.206177,-0.41237 0.206177,-0.618555c0,0 0,0 0,0c0,-0.206185 -0.078888,-0.221879 0,-0.41237c0.111572,-0.26939 0.206177,-0.618556 0.206177,-0.82474c0,0 0,0 0,0c0,0.206184 0,0.206184 0,0.41237c0,0.412371 0,0.82474 0,1.237111c0,0.41237 0,0.618555 0,0.618555c0,0.206184 -0.206177,0.206184 -0.206177,0.41237c0,0 0,0 0,0c0,0.206185 -0.206177,0.206185 -0.206177,0.206185c0,0.206184 0,0.206184 0,0.206184c0,0 0,0 -0.206177,0.206185c0,0 0,0 0,0.206185c0,0 -0.206207,0 -0.206207,0c0,0 -0.060394,-0.145789 -0.206177,0c-0.145782,0.145795 0,0.206185 -0.206177,0.206185c0,0 -0.206177,0 -0.206177,0c-0.206207,0 -0.412384,0.206184 -0.412384,0.206184c-0.206177,0 -0.412354,0 -0.412354,0.206185c0,0 -0.206207,0 -0.206207,0c-0.206177,0 -0.206177,0 -0.412354,0.206185c0,0 0,0 0,0c-0.206207,0 -0.206207,0 -0.206207,0c0,0 0,0.206184 0,0c0,0 -0.063202,-0.300785 0.206207,-0.412371c0.190491,-0.078896 0.221863,-0.127289 0.412354,-0.206184c0.269409,-0.111586 0.206207,-0.206185 0.412384,-0.412371c0,0 0.206177,0 0.206177,-0.206185c0,0 0.206177,0 0.206177,0c0.206207,0 0.060425,-0.06039 0.206207,-0.206184c0.145782,-0.145789 0.060394,-0.06039 0.206177,-0.206185c0.145782,-0.145789 0.060394,-0.06039 0.206177,-0.206185c0.145782,-0.145789 0.412384,-0.206184 0.412384,-0.206184c0.206177,-0.206185 0.206177,-0.206185 0.206177,-0.412371c0,0 0,-0.206184 0,-0.206184c0,0 0,-0.206185 0,-0.206185c0,-0.206185 0,-0.206185 0,-0.206185c0,-0.206185 0,-0.206185 0,-0.41237c0,0 0,0 -0.206177,-0.206185c0,0 0,-0.206185 0,-0.206185c0,0 0,-0.206185 0,-0.206185c0,0 0,0 0,-0.206184c0,0 0,0 0,0c0,-0.206185 0,-0.206185 0,-0.206185c0,-0.206185 0.157806,-0.443764 0,-0.82474c-0.111603,-0.269405 -0.206207,-0.41237 -0.206207,-0.41237c0,-0.206185 0,-0.206185 0,-0.206185c0,0 0,0 0,0.206185c0,0.206185 -0.10025,0.582218 -0.206177,1.030925c-0.189484,0.802679 0,1.237111 0,1.443295c0,0.206185 0.078888,0.428065 0,0.618556c-0.111572,0.269389 -0.206177,0.206184 -0.206177,0.41237c0,0 0,0 0,0c0,0 -0.206177,0 -0.206177,0c0,0 0.078918,-0.015697 0,-0.206185c-0.111603,-0.269404 -0.206207,-0.618555 -0.206207,-1.030925c0,-0.82474 0,-1.237111 0,-1.649481c0,-0.206185 -0.206177,-0.618555 -0.206177,-0.82474c0,0 0,-0.206185 0,-0.206185c0,-0.206185 0,-0.206185 0,-0.206185c0,-0.206185 0,-0.206185 0,-0.206185c0,-0.206185 0,-0.206185 0,-0.41237c0,-0.206185 0,-0.41237 0,-0.41237c0,-0.206185 0,-0.206185 0,-0.206185c0,-0.206185 0,-0.206185 0,-0.41237c0,-0.41237 0,-0.618555 0,-1.030925c0,-0.206185 0,-0.206185 0,-0.206185c0,0 0,0.206185 0,0.206185c0,0.206185 0,0.41237 0,0.41237c0,0.206185 0.206177,0.206185 0.206177,0.41237c0,0 0,0.206185 0,0.41237c0,0.41237 0,0.41237 0,0.618556c0,0 0,0.206185 0,0.206185c0,0 0.206207,0 0.206207,0c0,0 0,0 0.206177,0c0.206177,0 0.266571,-0.145789 0.412354,0c0.145782,0.145795 0.206207,0.206185 0.206207,0.206185c0,0.206185 0.206177,0.206185 0.206177,0.41237c0,0 0,0.206185 0,0.41237c0,0 0.094604,0.142981 0.206177,0.41237c0.078888,0.190491 0,0.41237 0,0.41237c0,0.206185 0.206177,0.41237 0.206177,0.618555c0,0.206185 0,0.206185 0,0.206185c0,0 0,-0.206185 0,-0.412371c0,-0.618555 0,-1.030925 0,-1.64948c0,-0.41237 0.078888,-0.840434 0,-1.030925c-0.111572,-0.269389 -0.060394,-0.266575 -0.206177,-0.41237c-0.145782,-0.145789 -0.060394,-0.266575 -0.206177,-0.41237c-0.145782,-0.145789 -0.206177,0 -0.206177,0c-0.206207,0 -0.206207,0 -0.206207,0c0,0 -0.206177,0 0,0c0,0 0,0 0.206207,0c0.206177,0 0.206177,0 0.412354,0c0,0 0.127258,0.015697 0.206177,0.206185c0.111603,0.269405 0.266602,0.060396 0.412384,0.206185c0.145782,0.145795 0.206177,0.206185 0.206177,0.41237c0,0 0.060394,0.060375 0.206207,0.206185c0.145782,0.145795 0,0.206185 0.206177,0.41237c0,0 0,0.206185 0,0.41237c0,0 0.206177,0.206185 0.206177,0.206185c0,0.206185 0,0.206185 0.206177,0.41237c0,0 0,0.206185 0,0.206185c0,0.206185 0,0.206185 0,0.41237c0,0 0,0.206185 0,0.206185c0,0.206184 0,0.41237 0,0.41237c0,0.206185 0,0.206185 0,0.41237c0,0 0,0.206185 0,0.412371c0,0 0,0.206185 0,0.41237c0,0 -0.206177,0.206185 -0.206177,0.206185c0,0.206185 -0.060394,0.060396 -0.206177,0.206185c-0.145782,0.145795 0,0.206185 0,0.206185c-0.206177,0.206184 -0.206177,0.206184 -0.206177,0.206184c-0.206207,0.206185 -0.206207,0.206185 -0.206207,0.412371c0,0.206184 -0.206177,0.41237 -0.206177,0.618555c0,0.206184 -0.206177,0.618555 -0.206177,0.618555c0,0.206185 -0.060394,0.26656 -0.206207,0.41237c-0.145782,0.145795 -0.060394,0.060396 -0.206177,0.206185c-0.145782,0.145795 0,0.206185 0,0.206185c0,0 -0.206177,0 -0.206177,0c0,0 0.015686,-0.127283 0.206177,-0.206185c0.269379,-0.111588 0.206177,-0.412362 0.412384,-0.618555c0.206177,-0.206178 0.333435,-0.428067 0.412354,-0.618555c0.111603,-0.269405 0.206207,-0.206185 0.412384,-0.412371c0,0 -0.145782,-0.266575 0,-0.41237c0.145782,-0.145789 0.206177,-0.206185 0.206177,-0.206185c0,-0.206184 0,-0.206184 0,-0.41237c0,0 0,-0.206185 0.206177,-0.412371c0,0 0,-0.206184 0,-0.41237c0,-0.206185 0,-0.206185 0,-0.618555c0,0 0,0 0,-0.206185c0,0 0,-0.206185 0,-0.206185c0,0 0,0 0,-0.206184c0,0 0,0 0,-0.206185c0,0 0,0 0,-0.206185c0,0 0,0 0,-0.206185c0,-0.206185 0,-0.206185 0,-0.206185c0,0 0,-0.206185 0,-0.206185c0,0 0,-0.206185 0,0c0,0 0.206207,0.206185 0.206207,0.206185c0.206177,0.206185 0.306427,0.376032 0.412354,0.82474c0.047363,0.200669 0,0.41237 0,0.824739c0,0.206185 0,0.412371 0,0.82474c0,0.206185 0,0.206185 0,0.412371c0,0.206185 0,0.41237 0,0.618555c0,0 -0.206177,0.206185 -0.206177,0.206185c-0.206177,0.206184 -0.206177,0.41237 -0.206177,0.41237c0,0 0,0.206185 -0.206207,0.206185c0,0 0,0 -0.206177,0c0,0 -0.206177,0.206184 0,0.206184c0.206177,0 0,-0.206192 0.206177,-0.41237c0.206207,-0.206193 0.206207,-0.618555 0.412384,-0.82474c0.206177,-0.206184 0.206177,-0.41237 0.206177,-0.82474c0,-0.206184 0,-0.206184 0.206177,-0.41237c0,0 0,-0.206185 0,-0.206185c0,-0.206185 0,-0.206185 0,-0.41237c0,0 0,0 0,-0.206185c0,0 0.060394,-0.351995 0.206207,-0.206185c0.145782,0.145795 0,0.206185 0,0.618555c0,0.412371 0.047363,0.830257 0,1.030926c-0.105927,0.448718 -0.206207,0.618555 -0.412384,0.82474c0,0 0,0.206185 -0.206177,0.41237c0,0 0,0.206185 0,0.206185c-0.206177,0 -0.060394,0.06039 -0.206177,0.206185c-0.145813,0.14581 -0.206207,0 -0.206207,0c0,0.206184 0,0.206184 0,0.206184c0,0 -0.206177,0.206185 -0.206177,0.206185c0,0 0,0.206185 0,0.206185c0,0 0,0.206185 0,0.206185c0,0 0,0.206184 0,0.206184c0,0 0,0 -0.206177,0c0,0 0.060394,-0.060395 0.206177,-0.206184c0.145782,-0.145795 0.300781,-0.349151 0.412384,-0.618556c0.157806,-0.380976 0.060394,-0.678946 0.206177,-0.824739c0.145782,-0.145789 0.206177,-0.206185 0.206177,-0.412371c0,0 0,-0.206184 0,-0.206184c0.206177,0 0.206177,-0.206185 0.206177,-0.412371c0,0 0,-0.206185 0,-0.206185c0.206207,-0.206184 0.206207,-0.206184 0.206207,-0.41237c0,0 0,-0.206185 0,-0.412371c0,-0.206184 0,-0.41237 0,-0.618555c0,0 0,-0.206184 0,-0.206184c0,-0.206185 0,-0.206185 0,-0.206185c0,-0.206185 0,-0.206185 0,-0.41237c0,0 0,0 0,-0.206185c0,0 0,0 0,-0.206185c0,0 0,0 0,-0.206185c0,0 0,0 0,0c0,-0.206185 0,-0.206185 -0.206207,-0.206185c0,0 0,-0.206185 0,-0.206185c0,0 0,0 -0.206177,0c0,0 0,0 0,0c0,0 -0.206177,-0.206185 -0.206177,-0.206185c0,0 -0.206177,0 -0.206177,0c0,-0.206185 0,-0.206185 0,-0.206185c-0.206207,0 -0.206207,0 -0.206207,0c0,-0.206185 0,-0.206185 0,-0.206185c0,0 -0.060394,0.145789 -0.206177,0c-0.145782,-0.145795 0,-0.206185 0,-0.206185c0,0 0,-0.206185 0,-0.206185c0,0 0,0 0,-0.206185c0,0 0,0 0,-0.206185c0,0 0.206177,0 0.206177,0c0,0 0,0 0.206207,0c0,0 0.206177,0 0.206177,0c0,0 0.206177,0 0.412354,0c0,0 0.206207,0.206185 0.206207,0.206185c0,0 0.206177,0 0.206177,0c0,0.206185 0,0.206185 0,0.206185c0.206177,0 0.206177,0 0.206177,0.206185c0,0 0,0 0,0c0,0.206185 0.206207,0.206185 0.206207,0.206185c0,0 0,0.206185 0.206177,0.206185c0,0 0,0.206185 0,0.206185c0,0.206185 0,0.206185 0.206177,0.41237c0,0 0,0.206185 0,0.206185c0,0.206185 0,0.41237 0,0.41237c0,0.206185 0,0.206185 0,0.41237c0,0.206185 0,0.412371 0,0.412371c0,0.206184 0,0.41237 0,0.618555c0,0 0,0.206184 0,0.206184c0,0.206185 0.145782,0.266576 0,0.412371c-0.145782,0.145789 -0.206177,0.206185 -0.206177,0.206185c0,0 0,0.206184 0,0.206184c0,0 0,0.206185 -0.206177,0.206185c0,0 0,0 0,0c0,0.206185 0,0.206185 -0.206207,0.206185c0,0 0,0.206185 0,0.206185c0,0 0,0 0,0.206184c0,0 -0.206177,0 -0.206177,0c0,0.206185 0,0.206185 0,0.206185c0,0.206185 0,0.206185 0,0.206185c0,0.206184 0,0.206184 0,0.206184c0,0.206185 0,0.206185 0,0.206185c-0.206177,0.206185 -0.206177,0.206185 -0.206177,0.41237c0,0 0,0 0,0c0,0 0,0.206185 -0.206207,0.206185c0,0 0,0 0,0.206185c0,0 0,0 0,0c0,0 -0.206177,0 -0.206177,0c0,0 -0.206177,0 -0.206177,0.206185c0,0 0,0 0,0c-0.206177,0 -0.206177,0.206184 -0.206177,0.206184c0,0 -0.206207,0 -0.206207,0c0,0 -0.206177,0 -0.206177,0c0,0 -0.206177,0 -0.206177,0c0,0 0,0 -0.206177,0c-0.206207,0 -0.349182,0.094598 -0.618561,0.206185c-0.190521,0.078914 -0.412384,0 -0.618561,0.206185c0,0 -0.206177,0 -0.206177,0c0,0 -0.206207,0.206184 -0.206207,0.206184c-0.206177,0 -0.206177,0 -0.206177,0c-0.206177,0 -0.206177,0 -0.206177,0c0,0 -0.060394,0.06039 -0.206177,0.206185c-0.145813,0.14581 -0.143005,0.094598 -0.412384,0.206185c-0.380951,0.157804 -0.472778,0.06039 -0.618561,0.206185c-0.145782,0.145789 -0.206177,0 -0.412354,0c0,0 0,0 -0.206207,0c0,0 0.063202,0.094598 -0.206177,0.206184c-0.190491,0.078902 -0.206177,0 -0.412354,0c0,0 -0.206207,0.206185 -0.206207,0.206185c-0.206177,0 -0.412354,0 -0.412354,0c-0.206177,0 -0.206177,0 -0.206177,0c-0.412384,0 -0.412384,0.206185 -0.618561,0.206185c-0.206207,0 -0.206207,0 -0.412384,0c-0.206177,0 -0.376007,0.100259 -0.824738,0.206184c-0.200653,0.047368 -0.443756,-0.157817 -0.824738,0c-0.269379,0.111588 -0.206177,0.206185 -0.412384,0.206185c-0.206177,0 -0.412354,0 -0.61853,0c-0.206207,0 -0.206207,0 -0.412384,0c-0.206177,0 -0.221863,-0.078896 -0.412354,0c-0.269409,0.111586 -0.412384,0.206185 -0.618561,0.206185c-0.206207,0 -0.618561,0 -0.824738,0c-0.206207,0 -0.412384,0 -0.618561,0c0,0 -0.206177,0 -0.412384,0c-0.412354,0 -0.618561,0 -0.824738,0c-0.206177,0 -0.412354,0 -0.618561,0c-0.206177,0 -0.61853,0 -0.61853,0c0,0 -0.206207,0 -0.412384,0c0,0 -0.206177,0 -0.412384,0c-0.206177,0 -0.412354,0 -0.61853,0c0,0 -0.206207,0 -0.412384,0c-0.206177,0 -0.412354,0 -0.412354,0c0,0 0,0.206185 -0.206207,0.206185c-0.412354,0 -1.443298,0 -2.268036,0c-0.824738,0 -1.443298,0 -2.061829,0c-0.824768,0 -1.443298,0 -2.061859,0c-0.824738,0 -1.237122,0 -1.649475,0c-0.618561,0 -1.030945,0 -1.649506,0c-0.412354,0 -1.030914,0 -1.443268,0c-0.618561,0 -1.237122,0 -1.855682,0c-0.824738,0 -1.649475,0 -2.474213,0c-0.618561,0 -1.449463,0.10077 -2.268036,0c-0.84375,-0.103871 -1.435852,-0.230074 -2.061859,-0.412371c-0.816223,-0.237682 -1.85968,-0.331103 -2.680389,-0.41237c-1.046234,-0.103597 -1.443298,-0.412371 -2.268036,-0.412371c-0.618561,0 -1.030945,0 -1.443298,0c-0.412384,0 -0.824738,-0.206184 -1.237122,-0.206184c-0.412354,0 -0.85614,0.157817 -1.237122,0c-0.269379,-0.111588 -0.61853,-0.206185 -0.824738,-0.206185c-0.206177,0 -0.412354,0 -0.61853,0c-0.412384,0 -0.618561,0 -0.824768,0c0,0 -0.206177,0 -0.206177,0c0,0 -0.206177,0 0,0c0,0 0.206177,0 0.206177,0c0.206207,0 0.618561,0 0.824768,0c0.206177,0 0.376007,-0.100259 0.824738,-0.206185c0.200653,-0.047368 0.412354,0 0.824738,0c0.412354,0 1.237091,0 2.061829,0c0.618561,0 1.649506,0 2.268036,0c0.824768,0 1.237122,0 2.268036,0c0.618561,0 1.237122,0 1.649506,0c0.61853,0 0.824738,0 1.237091,0c0.412384,0 1.030945,0 1.443298,0c0.412384,0 1.015625,0.102589 2.061859,0.206185c0.820709,0.081266 1.443298,0 1.855652,0c0.618561,0 0.967743,0.094598 1.237122,0.206185c0.380951,0.157804 0.824738,0 1.237122,0c0.61853,0 1.015625,0.102588 2.061829,0.206184c0.41037,0.040636 1.00589,0.101744 1.649475,0.206185c0.610565,0.099086 1.030945,0 1.649506,0c0.412354,0 0.994568,0.100259 1.443298,0.206185c0.60199,0.142105 1.030914,0 1.443268,0c1.030945,0 1.443298,0 2.061859,0c0.412384,0 0.824738,0 1.237122,0c0.412354,0 0.618561,0 1.030914,0c0.206177,0 0.412384,0 0.824738,0c0.412384,0 0.618561,0 0.824738,0c0.412384,0 0.618561,0 0.824738,0c0,0 0.206207,-0.206185 0.206207,-0.206185c0,0 0,0 0.206177,0c0,0 0,0 0.206177,0c0.412384,0 0.824738,0 1.443298,0c0.206177,0 0.412384,0 0.412384,0c0.206177,0 0.206177,0 0.206177,0c0,0 0.412384,0.206207 0.412384,0c0,-0.206207 -0.206207,0 -0.412384,0c-0.206177,0 -0.555359,0.094598 -0.824738,0.206185c-0.190491,0.078902 -0.417908,-0.047371 -0.618561,0c-0.4487,0.105926 -0.618561,0.206184 -0.824738,0.206184c-0.206177,0 -0.824738,0 -1.237122,0c-0.61853,0 -1.237091,0 -1.649475,0c-0.206177,0 -0.412354,0 -0.412354,0c-0.206207,0 -0.206207,0 -0.206207,0c-0.206177,0 -0.206177,0 -0.206177,0c0.206177,0 0.206177,0 0.412384,0c0.824738,0 1.635895,-0.442124 2.061829,-0.618555c0.602386,-0.249521 1.00058,-0.44806 1.237122,-0.618555c0.748016,-0.539161 1.568329,-0.937932 2.68042,-1.649481c1.165039,-0.745433 2.206696,-1.353297 3.29895,-1.855665c0.592377,-0.272451 0.824738,-0.412364 1.237122,-0.618555c0.412354,-0.20618 0.863098,-0.34898 1.237091,-0.618555c0.236542,-0.170496 0.266602,-0.266576 0.412384,-0.412371c0.145782,-0.145789 0.412354,-0.206179 0.618561,-0.618555c0.206177,-0.412364 0.61853,-0.618549 0.824738,-1.030925c0.206177,-0.412364 0.306427,-0.582218 0.412354,-1.030925c0.047363,-0.20067 0,-0.41237 0.206177,-0.41237c0,0 0,-0.206185 0,-0.206185c0,0 0,-0.206185 0,-0.206185c-0.206177,0 -0.206177,0 -0.412354,0c0,0 -0.206177,0 -0.206177,0c-0.206207,0 -0.206207,0 -0.412384,0c0,0 -0.206177,0 -0.206177,0c0,0 -0.206177,0 -0.206177,0c-0.206207,0 -0.206207,0 -0.412384,0c0,0 0,0 -0.206177,0c-0.206207,0 -0.42807,-0.127283 -0.618561,-0.206185c-0.269379,-0.111587 -0.412384,-0.206185 -0.412384,-0.206185c-0.206177,-0.206185 -0.412354,-0.41237 -0.412354,-0.41237c-0.206177,0 -0.42807,-0.127283 -0.618561,-0.206185c-0.269379,-0.111587 -0.412384,-0.206185 -0.618561,-0.41237c0,0 -0.206177,0 -0.206177,0c0,0 -0.206177,0 -0.206177,0c0,0 0,0 0.206177,-0.206185c0,0 0.206177,0 0.412354,0c0.206207,0 0.412384,0 0.618561,0c0,0 0.206207,0 0.412384,0c0.206177,0 0.412354,0 0.618561,0c0,0 0.206177,0 0.412354,0c0,0 0.206177,0.206185 0.412384,0.206185c0.206177,0 0.582214,0.100259 1.030914,0.206185c0.200653,0.047371 0.618561,0 0.824738,0c0.206177,0 0.349182,0.094598 0.618561,0.206185c0.190491,0.078902 0.412354,0 0.618561,0c0,0 0.206177,0 0.206177,0c0.206177,0 0.412384,0.206185 0.618561,0.206185c0,0 0.206177,0 0.412354,0c0,0 0,0 0.206207,0c0,0 0,0 0,0c0,0.206185 0,0.206185 0,0.206185c-0.206207,0 -0.412384,0 -0.618561,0c-0.206177,0 -0.412384,0 -0.618561,0c-0.206177,0 -0.412384,0 -0.618561,0c-0.206177,0 -0.412354,0 -0.618561,0c-0.206177,0 -0.412354,0 -0.61853,0c-0.412384,0 -0.618561,0 -0.824738,0c-0.206207,0 -0.412384,0 -0.824768,0c-0.412354,0 -0.824738,0 -1.237091,0c-0.206177,0 -0.618561,0 -0.824738,0c-0.412384,0 -0.618561,0 -0.824738,0c-0.618561,0 -0.824738,0 -1.030945,0c-0.412354,0 -0.618561,0 -0.824738,0c-0.412354,0 -0.618561,-0.206185 -0.824738,-0.206185c-0.206177,0 -0.42804,0.078914 -0.618561,0c-0.269379,-0.111587 -0.412354,-0.206185 -0.618561,-0.206185c-0.206177,0 -0.824738,0 -1.030914,0c-0.206177,0 -0.412354,0 -0.618561,0c-0.412354,0 -0.349152,-0.0946 -0.618561,-0.206185c-0.380981,-0.157791 -0.61853,0 -0.824738,0c-0.206177,0 -0.61853,0 -0.824738,0c-0.206177,0 -0.618561,0 -0.824738,0c-0.206177,0 -0.618561,0 -1.030914,0c-0.412384,0 -0.824738,0 -1.443298,0c-0.206177,0 -0.840424,0.078895 -1.030914,0c-0.269409,-0.111585 -0.618561,-0.206185 -0.824768,-0.206185c-0.412354,0 -0.61853,0 -1.030914,0c-0.206177,0 -0.412354,0 -0.824738,0c-0.206177,0 -0.618561,0 -0.824738,0c-0.206177,0 -0.412384,0 -0.618561,0c0,0 -0.412354,0.206185 -0.618561,0.206185c-0.206177,0 -0.634247,-0.078902 -0.824738,0c-0.269379,0.111587 -0.412354,0.206185 -0.618561,0.206185c-0.206177,0 -0.42804,-0.078895 -0.61853,0c-0.269409,0.111585 -0.618561,0.206185 -0.824768,0.206185c-0.412354,0 -0.582184,0.100259 -1.030914,0.206185c-0.200653,0.047369 -0.412354,0.206185 -0.824738,0.206185c-0.206177,0 -0.42807,-0.078902 -0.618561,0c-0.269379,0.111587 -0.412354,0.206185 -0.618561,0.206185c-0.206177,0 -0.412354,0 -0.61853,0c-0.206207,0 -0.412384,-0.206177 -0.412384,0c0,0.206177 0.624084,-0.158816 0.824738,-0.206185c0.44873,-0.105926 0.967712,-0.50697 1.237122,-0.618555c0.190491,-0.078895 0.349152,-0.0946 0.618561,-0.206185c0.380981,-0.157791 1.041565,-0.074078 1.855652,-0.206185c0.643616,-0.104441 1.418243,-0.514114 2.061859,-0.618555c0.610565,-0.099082 1.237091,0 1.855652,0c0.206177,0 0.412384,0 0.618561,0c0.206177,0 0.618561,0 0.824738,0c0.412384,0 0.618561,0 1.030914,0c0.618561,0 1.237122,0 2.061859,0c0.412384,0 1.030945,0 1.443298,0c0.618561,0 1.030914,0 1.443298,0c0.412384,0 0.824738,0 1.237122,0c0.412354,0 1.030914,0.206185 1.649475,0.206185c0.412354,0 0.824738,0 1.030914,0c0.412384,0 0.618561,0 0.824738,0c0.206207,0 0.412384,0 0.412384,0c0.206177,0 0.412354,0 0.824738,0c0.206177,0 0.412354,0 0.618561,0c0.206177,0 0.412354,0.206185 0.412354,0.206185c0.206207,0 0.412384,0 0.618561,0c0.206177,0 0.349182,0.094598 0.618561,0.206185c0.190491,0.078902 0.206177,0 0.206177,0c0,0.206185 0,0.206185 0,0.206185c0,0 -0.142975,0.094598 -0.412354,0.206185c-0.380981,0.157816 -0.824738,0.206185 -1.030945,0.206185c-0.206177,0 -0.412354,0 -0.618561,0c-0.412354,0 -0.788391,0.100259 -1.237091,0.206185c-0.60202,0.142121 -1.428009,0.102589 -2.474213,0.206185c-1.436279,0.142221 -2.061859,0 -2.886597,0c-0.618561,0 -1.030945,0.206185 -1.649475,0.206185c-0.412384,0 -1.030945,0 -1.649506,0c-0.61853,0 -1.237091,0 -1.855652,0c-0.824738,0 -1.237122,0 -1.855682,0c-0.412354,0 -0.817291,-0.023895 -1.443268,-0.206185c-0.816254,-0.237693 -1.830139,-0.483124 -2.886597,-0.82474c-0.808868,-0.261558 -1.237122,-0.41237 -1.649475,-0.41237c-0.206207,0 -0.206207,0 -0.206207,0c0,0 -0.206177,0 -0.206177,0c-0.206177,0 -0.206177,0 -0.206177,0c0,0 -0.206207,0 -0.206207,0c0,0 -0.206177,0 -0.206177,0c-0.206177,0 -0.206177,0.206185 -0.412354,0.206185c-0.206207,0 -0.443756,-0.157791 -0.824738,0c-0.269409,0.111585 -0.412384,0.206185 -0.618561,0.206185c-0.206207,0 -0.618561,0 -0.824738,0c-0.412384,0 -0.555359,0.094598 -0.824738,0.206185c-0.380981,0.157816 -0.824768,0.206185 -1.030945,0.206185c-0.206177,0 -0.206177,0 -0.206177,0.206185c0,0 0.145782,0.06039 0,0.206185c-0.583191,0.583178 -1.654663,0.024469 -2.68042,-0.206185c-0.829407,-0.186505 -1.654785,-0.140134 -2.061829,-0.206185c-0.643616,-0.104441 -0.994598,-0.306444 -1.443298,-0.41237c-0.401337,-0.09475 -1.030945,0 -1.443298,0c-0.206177,0 -0.618561,0 -1.030914,0c-0.206207,0 -0.618561,0 -0.824768,0c-0.412354,0 -0.61853,0 -1.030914,0c-0.206177,0 -0.412354,0 -0.824738,0c-0.412384,0 -0.824738,0 -1.237122,0c-0.206177,0 -0.412354,0.206185 -0.61853,0.206185c-0.206207,0 -0.618561,0.206185 -0.824768,0.206185c-0.206177,0 -0.412354,0 -0.61853,0c-0.206207,0 -0.349182,0.094598 -0.618561,0.206185c-0.190491,0.078902 -0.618561,0 -0.824738,0c-0.412384,0 -0.618561,0.206185 -0.824738,0.206185c-0.206207,0 -0.417908,-0.047369 -0.618561,0c-0.44873,0.105926 -0.824738,0.206185 -1.030945,0.206185c-0.412354,0 -0.634216,0.127271 -0.824738,0.206185c-0.269379,0.111587 -0.412354,0.206185 -0.61853,0.206185c0,0 -0.143005,0.094598 -0.412384,0.206185c-0.190491,0.078902 -0.412384,0 -0.412384,0c0,0 -0.200653,0.047369 0,0c0.44873,-0.105926 0.994598,-0.306444 1.443298,-0.41237c0.60202,-0.142121 1.634216,-0.308774 2.68042,-0.41237c1.23111,-0.121904 2.268036,-0.206185 3.092773,-0.206185c0.618561,0 1.005859,-0.101744 1.649475,-0.206185c0.203522,-0.033026 0.618561,0 1.237122,0c0.412354,0 0.830048,0.066051 1.237091,0c0.643616,-0.104441 1.030945,-0.206185 1.443298,-0.206185c0.618561,0 1.00589,-0.101744 1.649506,-0.206185c0.407043,-0.066051 1.030914,0 1.443268,0c0.412384,0 0.824768,-0.206185 1.237122,-0.206185c0.206177,0 0.618561,0 0.824738,0c0.206177,0 0.618561,0 0.824738,0c0.412384,0 0.624084,0.047368 0.824738,0c0.44873,-0.105926 0.824738,-0.206185 1.237122,-0.206185c0.206177,0 0.618561,0 0.618561,0c0.206177,0 0.206177,0 0.412354,0c0,0 0.206207,0 0.206207,0c0,0 0.206177,0 0.206177,0c0,0 0.206177,0 0.412354,0c0.412384,0 1.030945,0 1.443298,0c0.412384,0 1.151733,-0.291578 1.443298,0c0.145782,0.145795 0.206177,0.206185 0.412384,0.206185c0.206177,0 0.811157,0.029754 1.237091,0.206185c0.602386,0.249521 0.994598,0.306444 1.443298,0.41237c0.60202,0.142121 1.047119,0.162865 1.649475,0.41237c0.425964,0.176438 0.761566,0.300783 1.030945,0.41237c0.190491,0.078902 0.206177,0.206185 0.412354,0.206185l0,0.206185" id="svg_3" stroke-width="2" stroke="#000" fill="none"/>
  <path d="m372.154999,4.298575c-0.242126,0 -0.484253,0 -0.726379,0c-0.242126,0 -0.968536,0 -1.452789,0c-0.726379,0 -1.452789,0 -2.421295,0c-0.968536,0 -1.937042,0 -2.421326,0c-0.726379,0 -1.694916,0 -2.421295,0c-0.484253,0 -0.968536,0 -1.210663,0l0,0l0,0l0,0" id="svg_5" fill-opacity="null" stroke-opacity="null" stroke-width="2" stroke="#000" fill="none"/>
  <path d="m373.123535,4.056444c-0.242126,0 -0.484253,0 -0.968536,0c-0.484253,0 -1.210632,0 -1.937042,0c-0.968506,0 -1.210632,0 -1.694916,0c-0.484253,0 -0.726379,-0.242131 -0.968506,-0.242131c-0.242126,0 -0.410065,-0.11109 -0.72641,-0.242131c-0.223694,-0.092659 -0.484253,0 -0.726379,0c-0.484253,0 -0.72641,0 -0.968536,0c-0.242126,0 -0.484253,0 -0.726379,0c-0.242126,0 -0.484253,0 -0.72641,0c0,0 -0.242126,0 -0.484253,0c-0.242126,0 -0.484253,0 -0.726379,0c-0.242126,0 -0.484253,0 -0.72641,0c-0.242126,0 -0.484253,0 -0.726379,0c-0.242126,0 -0.484253,0 -0.726379,0c-0.242157,0 -0.484283,0 -0.72641,0c-0.242126,0 -0.484253,0 -0.484253,0c-0.242126,0 -0.484253,0 -0.72641,0c-0.242126,0 -0.484253,0 -0.726379,0c-0.484253,0 -0.484253,0 -0.726379,0c-0.484283,0 -0.484283,0 -0.72641,0c-0.242126,0 -0.726379,0 -0.968506,0c-0.242157,0 -0.410065,0.11109 -0.72641,0.242131c-0.223694,0.092659 -0.242126,0 -0.242126,0c0,0 0,0.242131 0,0.242131c-0.242126,0 -0.242126,0 -0.726379,0c-0.968536,0 -1.694916,0 -2.421326,0c-0.484253,0 -0.894287,-0.111092 -1.210663,-0.242131c-0.447388,-0.185303 -0.968506,0 -1.452759,0c-0.242157,0 -0.72641,0 -0.968536,0c-0.242126,0 -0.726379,0 -0.968536,0c-0.242126,0 -0.726379,0 -0.968506,0c-0.242126,0 -0.72641,0 -0.968536,0c-0.242126,0 -0.726379,0 -0.968506,0c-0.484283,0 -0.968536,0 -1.210663,0c-0.242126,0 -0.726379,0 -0.968536,0c-0.484253,0 -0.968506,0 -1.452759,0c-0.242157,0 -0.968536,0 -1.210663,0c-0.484253,0 -0.726379,0 -1.210663,0c-0.242126,0 -0.484253,0 -0.726379,0c-0.242126,0 -0.484253,0 -0.72641,0c-0.242126,0 -0.484253,0 -0.484253,0c-0.242126,0 -0.484253,0 -0.484253,0c-0.242126,0 -0.484253,0 -0.72641,0c-0.242126,0 -0.484253,0.242131 -0.726379,0.242131c-0.242126,0 -0.484253,0 -0.726379,0c-0.484283,0 -0.763275,-0.185318 -1.210663,0c-0.316345,0.131041 -0.744843,0.149472 -0.968536,0.242131c-0.316345,0.131041 -0.484253,0.242131 -0.726379,0.242131c-0.242126,0 -0.242126,0 -0.484253,0c0,0 0,0 -0.242157,0c-0.484253,0 -0.726379,0 -1.210632,0c-0.484283,0 -0.72641,0 -1.210663,0c-0.242126,0 -0.726379,0 -1.210663,0c-0.242126,0 -0.726379,0 -0.968506,0c0,0 -0.242126,0 -0.242126,0c-0.242157,0 -0.410065,0.11109 -0.72641,0.242131c-0.223694,0.092659 -0.484253,0 -0.484253,0c-0.242126,0 -0.242126,0.242131 -0.242126,0.242131l0,0.484262" id="svg_7" fill-opacity="null" stroke-opacity="null" stroke-width="2" stroke="#000" fill="none"/>
  <path d="m355.447998,3.087921c0,0 -0.242126,0 -0.242126,0c-0.242157,0 -0.242157,0 -0.484283,0c-0.242126,0 -0.484253,0 -0.726379,0c-0.242126,0 -0.484253,0 -0.72641,0c0,0 -0.242126,0 -0.242126,0c-0.242126,0 -0.242126,0 -0.242126,0c0,0 -0.242126,0 -0.484253,0c0,0 -0.242126,0 -0.484253,0c0,0 -0.242157,0 -0.484283,0c-0.242126,0 -0.484253,0 -0.726379,0c-0.242126,0 -0.242126,0 -0.484253,0l0,0" id="svg_8" fill-opacity="null" stroke-opacity="null" stroke-width="2" stroke="#000" fill="none"/>
  <path d="m322.249372,4.271889c0,0 -1.210632,0 -2.663422,0c-1.694916,0 -3.389832,0 -4.842621,0c-1.452789,0 -2.663422,0 -3.874084,0c-0.968536,0 -1.937042,0 -2.663452,0c-0.726379,0 -1.694916,0 -2.179169,0c-0.726379,0 -1.452789,0.242131 -2.179169,0.242131c-0.72641,0 -1.452789,0.242131 -1.937042,0.242131c-0.968536,0 -1.210663,0 -1.937073,0c-0.484253,0 -1.452759,0 -1.937042,0c-0.726379,0 -1.210632,0 -2.179169,0c-0.726379,0 -1.210663,0 -1.937042,0c-0.484253,0 -0.968536,0 -1.452789,0c-0.242126,0 -0.242126,0 -0.484253,0c-0.968536,0 -2.16629,-0.12076 -3.874084,-0.242131c-1.690643,-0.120153 -3.147705,-0.242131 -5.084747,-0.242131c-0.484283,0 -1.694916,-0.242131 -2.905579,-0.242131c-0.968536,0 -2.179169,0 -2.905579,0c-1.210663,0 -1.694916,0 -2.179169,0c-0.72641,0 -1.210663,0 -1.694916,0c-0.72641,0 -1.452789,0 -1.937042,0c-0.484283,0 -1.210663,0 -1.694916,0c-0.484283,0 -1.210663,0 -1.937042,0c-0.484283,0 -0.968536,0 -1.210663,0c0,0 0.242126,0 0.484253,0c0.242126,0 0.72641,0 1.210663,0c0.484253,0 0.744812,0.092652 0.968506,0c0.316376,-0.131039 0.484283,-0.242131 0.968536,-0.242131c0.726379,0 1.694916,0 2.421295,0c0.72641,0 1.694916,0 2.421326,0c0.726379,0 1.210663,0 1.937042,0c0.484253,0 1.210663,0 1.694916,0c0.484253,0 1.210663,0 1.694916,0c0.484253,0 1.210663,0.242131 1.694916,0.242131c0.484253,0 0.726379,0 1.452789,0c0.484253,0 1.452789,0.242131 2.179169,0.242131c0.968536,0 1.694916,0 2.421326,0c0.968506,0 1.210632,0 2.179169,0c0.484253,0 0.968506,0 1.694916,0c0.726379,0 1.452789,0 1.937042,0c0.968506,0 1.937042,0 2.663422,0c0.968536,0 1.694916,0 2.663452,0c1.452789,0 2.179169,0 3.147705,0c0.726379,0 1.43045,-0.120152 2.421295,-0.242131c0.720978,-0.088757 1.937042,0 2.179199,0c0.726379,0 1.181213,-0.119482 1.937042,-0.242131c0.477997,-0.077567 0.968506,0 1.210632,0c0.484283,0 0.968536,0 1.210663,0c0.72641,0 0.968536,0 1.452789,0c0.484253,0 0.939087,-0.119482 1.694916,-0.242131c0.477997,-0.077567 1.210663,0 1.694916,0c0.726379,0 1.210663,0 1.694916,0c0.726379,0 1.210663,0 1.452789,0c0.484253,0 0.968506,0 1.210632,0c0.242157,0 0.484283,0 0.968536,0c0.242126,0 0.484253,0 0.968536,0c0.484253,0 1.452759,0 1.937042,0c0.484253,0 0.968506,0 0.968506,0c0.242126,0 0.484283,0 0.72641,0c0.242126,0 0.484253,0 0.726379,0c0.242126,0 0.484253,0 0.72641,0c0.242126,0 0.242126,0 0.726379,0c0.242126,0 0.484253,0 0.726379,0.242131c0,0 0.242157,0 0.242157,0c0,0 -0.242157,0 -0.484283,0c-0.242126,0 -0.502686,-0.092659 -0.726379,0c-0.316345,0.131041 -0.484253,0.242131 -0.484253,0.242131c-0.242157,0 -0.484283,0 -0.72641,0c-0.242126,0 -0.484253,0.242131 -0.726379,0.242131c-0.242126,0 -0.248596,-0.055637 -0.484283,0c-0.526917,0.124393 -0.726379,0.242131 -1.452759,0.242131c-0.484283,0 -1.452789,0 -1.937073,0c-0.726379,0 -1.210632,0 -2.179169,0c-0.726379,0 -1.452789,-0.242131 -2.179169,-0.242131c-0.72641,0 -1.694916,-0.242131 -1.937042,-0.242131c-0.968536,0 -1.694916,-0.242131 -2.663452,-0.242131c-0.726379,0 -1.181213,-0.119482 -1.937042,-0.242131c-0.71701,-0.11635 -1.452789,0 -2.179169,0c-0.72641,0 -1.167999,-0.117738 -1.694916,-0.242131c-0.942627,-0.222528 -1.919067,-0.120473 -3.147705,-0.242131c-0.481903,-0.047717 -1.707855,0.111254 -2.179169,0c-0.526947,-0.124393 -0.968536,-0.242131 -1.452789,-0.242131c-0.242126,0 -0.72641,0 -0.968536,0c-0.242126,0 -0.968506,0 -1.452789,0c-0.484253,0 -1.210632,0 -1.694916,0c-0.484253,0 -0.939087,-0.119482 -1.694916,-0.242131c-0.477997,-0.077567 -1.452759,0 -1.937042,0c-0.726379,0 -0.968506,0 -1.694916,0c-0.484253,0 -1.223602,0.111267 -1.694916,0c-0.526917,-0.124393 -1.210632,-0.242131 -1.694916,-0.242131c-0.726379,0 -1.452759,0 -2.179169,0c-0.968506,0 -1.210663,0 -2.179169,0c-0.484253,0 -0.968536,0 -1.452789,0c-0.484253,0 -0.968536,0 -1.210663,0c-0.484253,0 -0.968506,0 -1.452789,0c-0.484253,0 -1.210632,0 -1.937042,0c-0.484253,0 -0.968506,0 -1.452789,0c-0.484253,0 -0.726379,0 -1.210632,0c-0.484283,0 -0.968536,0 -1.210663,0c-0.484253,0 -0.968536,0.242131 -1.452789,0.242131c-0.726379,0 -1.223602,-0.11126 -1.694916,0c-0.526917,0.124393 -0.925842,0.359869 -1.452789,0.484262c-0.471313,0.111254 -0.732635,-0.077567 -1.210632,0c-0.755829,0.122649 -1.181244,0.361613 -1.937073,0.484262c-0.477997,0.077567 -0.652161,0.353221 -0.968506,0.484262c-0.671112,0.277988 -0.652191,0.11109 -0.968536,0.242131c-0.223694,0.092659 -0.726379,0 -1.210632,0.242131c0,0 -0.521149,0.056813 -0.968536,0.242131c-0.316345,0.131041 -0.726379,0.242131 -0.968506,0.484262c0,0 -0.502716,-0.092659 -0.72641,0c-0.316345,0.131041 -0.242126,0.242131 -0.484253,0.242131c0,0 -0.242126,0.242131 -0.242126,0.242131c0,0 0.242126,0 0.242126,0c0.242126,0 0.242126,0 0.484253,0c0.242126,0 0.070923,0.313049 0.242126,0.484262c0.171204,0.171209 0.484283,0.484262 0.484283,0.484262c0,0.484262 0.070923,0.555183 0.242126,0.726392c0.171204,0.171212 0.111084,0.167905 0.242126,0.484262c0.092651,0.2237 0.242126,0.24213 0.242126,0.24213c0,0 -0.074219,0.111091 0.242126,0.242131c0.223694,0.092659 0.242126,0.24213 0.242126,0.24213c0,0 0.353241,0.16789 0.484283,0.484262c0.185333,0.447394 0.424988,1.242619 0.968506,2.179176c0.876373,1.510165 1.199799,1.585756 1.452789,2.421309c0.07016,0.231741 0.242126,0.24213 0.242126,0.24213c0,0 0.242126,0 0.242126,0c0,0 0.242126,0 0.242126,0c0,0 0.070923,0.171209 0.242126,0c0.171204,-0.171212 0.242157,-0.24213 0.242157,-0.484262c0,0 0.242126,0 0.242126,-0.242131c0,0 0.242126,0 0.484253,0c0.242126,0 0.726379,0 1.210663,0c0.242126,0 0.726379,0 1.210632,0c0.242157,0 0.72641,0 0.968536,0c0.484253,0 0.726379,0 0.968536,0c0.242126,0 0.484253,0.242131 0.968506,0.242131c0.242126,0 0.484253,0 0.968536,0c0.484253,0 0.726379,0.242131 1.210632,0.242131c0.242157,0 0.72641,0 1.210663,0c0.484253,0 1.284363,-0.128477 2.179169,0.24213c0.316376,0.131039 0.72641,0.242131 0.72641,0.242131c0.242126,0 0.235657,-0.05563 0,0c-0.526917,0.124393 -0.72641,0.24213 -0.968536,0.24213c-0.484253,0 -0.726379,0.242131 -1.210632,0.242131c-0.484283,0 -0.968536,0 -1.210663,0c-0.484253,0 -0.968536,0 -1.452789,0c-0.726379,0 -0.968536,0 -1.452789,0c-0.242126,0 -0.484253,0 -0.968506,0c-0.242157,0 -0.981476,-0.130877 -1.452789,-0.242131c-0.526947,-0.124393 -0.72641,-0.24213 -1.210663,-0.24213c-0.484253,0 -0.968536,-0.242131 -1.452789,-0.242131c-0.242126,0 -0.484253,0 -0.726379,0c-0.484283,0 -0.72641,0 -0.968536,0c-0.242126,0 -0.410034,-0.11109 -0.726379,-0.24213c-0.447418,-0.185329 -0.72641,0 -0.968536,0c-0.484253,0 -0.726379,0 -0.968506,0c-0.242126,0 -0.72641,0 -0.968536,0c-0.242126,0 -0.484253,0 -0.726379,0c-0.242126,0 -0.484283,0 -0.968536,0c-0.242126,0 -0.484253,-0.242131 -0.968506,-0.242131c-0.242157,0 -0.72641,0 -0.72641,0c-0.242126,0 -0.242126,0 -0.242126,0c0.484253,0 0.683716,-0.117738 1.210663,-0.242131c0.235657,-0.055627 0.726379,0 0.968506,0c0.242126,0 0.484283,0 0.72641,0c0.242126,0 0.726379,0 1.452789,0c1.210632,0 1.937042,0 2.905548,0c0.72641,0 1.210663,0.242131 1.694916,0.242131c0.484253,0 0.925873,0.117738 1.452789,0.242131c0.471313,0.11126 1.210663,0.24213 1.452789,0.24213c0.484253,0 0.894287,0.111093 1.210663,0.242131c0.447388,0.185304 0.968506,0 1.694916,0c0.242126,0 0.652161,0.11109 0.968506,0.24213c0.447388,0.185317 0.968536,0 1.452789,0c0.242126,0 0.968536,0 1.452789,0c0.484253,0 0.726379,0 1.452789,0c0.484253,0 0.726379,0 1.210632,0c0.72641,0 0.968536,0 1.452789,0c0.484283,0 0.968536,0 1.210663,0c0.726379,0 0.968536,0 1.452789,0c0.242126,0 0.732635,0.077575 1.210663,0c0.755798,-0.122649 1.210632,-0.24213 1.694916,-0.24213c0.968506,0 1.188293,-0.120152 2.179169,-0.242131c0.720947,-0.088751 1.465729,0.11126 1.937042,0c0.526917,-0.124393 1.210663,-0.24213 1.937042,-0.24213c0.726379,0 1.452789,0 1.937042,0c0.484253,0 0.968536,0 1.937042,0c0.968536,0 1.694916,0 2.663452,0c0.726379,0 1.937042,0 2.905579,0c0.968506,0 1.939392,-0.194414 2.421295,-0.242131c1.228638,-0.121657 1.458221,-0.153381 2.179169,-0.242131c0.990875,-0.121979 1.523712,-0.070921 1.694916,-0.24213c0.171204,-0.171212 0.49054,-0.164561 0.968536,-0.242131c0.755798,-0.122649 1.714355,-0.075249 2.421295,-0.24213c0.526947,-0.124393 0.971649,-0.203346 1.210663,-0.242131c0.755798,-0.122649 1.694916,-0.24213 2.421295,-0.24213c0.968536,0 1.694916,0 1.937042,0c0.484283,0 0.968536,0 1.452789,0c0.968536,0 1.210663,0 1.937042,0c0.72641,0 1.452789,0 2.179199,0c0.726379,0 1.937042,0 2.421295,0c0.72641,0 0.968536,0 1.210663,0c0,0 0.242126,0 0.242126,0l-0.242126,0l-0.484253,0.484262l-1.452789,0.968523" id="svg_9" fill-opacity="null" stroke-opacity="null" stroke-width="2" stroke="#000" fill="none"/>
  <path d="m232.012207,4.345461c-0.304871,0 -0.914627,0 -2.13414,0c-0.914627,0 -2.439026,0 -3.658539,0c-1.524384,0 -3.658539,0 -5.487808,0c-1.219513,0 -3.048782,0 -3.963409,0c-0.914627,0 -2.13414,0 -2.439026,0c-0.609756,0 -0.914627,0 -1.219513,0c-0.304871,0 -0.914627,-0.304878 -0.914627,-0.304878c-0.304886,0 -0.914642,0 -1.829269,0c-0.609756,0 -0.914642,0 -1.524399,0c-1.524384,0 -2.13414,0 -2.743896,0c-0.609756,0 -0.96106,0.233347 -1.524399,0c-0.398331,-0.164999 -0.914627,-0.304878 -1.524384,-0.304878c-0.609756,0 -0.914627,0 -1.829269,0c0,0 -0.609756,0 -1.524384,0c-0.304886,0 -1.165771,-0.148249 -1.829269,-0.304878c-0.593445,-0.140093 -1.219513,0 -2.134155,0c-0.609756,0 -1.289139,0.350007 -2.13414,0c-0.398346,-0.164998 -0.914642,-0.304878 -1.524399,-0.304878c-0.609756,0 -1.524384,0 -1.829269,0c-0.609756,0 -1.219513,0 -1.524384,0c-0.609756,0 -1.165771,-0.148249 -1.829269,-0.304878c-0.296722,-0.070045 -0.914627,0 -1.219513,0c-0.304871,0 -0.914627,0 -1.524384,0c-0.304886,0 -0.609756,0 -1.219513,0c-0.304886,0 -0.609756,0 -0.914642,0c-0.304871,0 -0.609756,0 -0.914627,0c-0.609756,0 -1.219513,0 -1.524399,0c-0.304871,0 -0.609756,0 -0.914627,0c-0.304886,0 -0.914642,0 -1.219513,0c-0.304886,0 -0.609756,0 -0.914642,0c-0.304871,0 -0.914627,0 -1.219513,0c-0.304871,0 -0.609756,0 -0.609756,0c-0.304871,0.304878 0,0.609756 -2.439011,0.609756c-3.658539,0 -4.279724,-0.186256 -5.792694,0c-1.24762,0.15359 -1.829269,0.304878 -3.048782,0.304878c-0.914627,0 -1.470642,0.148249 -2.13414,0.304878c-0.890167,0.210142 -1.524399,0 -2.134155,0c-0.609741,0 -1.219498,0.304878 -1.829254,0.304878c-0.609756,0 -1.219513,0 -2.134155,0c-0.304871,0 -0.914627,0 -1.219513,0.304878c0,0 -0.609756,-0.304886 -0.609756,0c0,0.304886 0.656174,0.23334 1.219513,0c0.398346,-0.164999 0.821182,-0.444757 1.219513,-0.609756c0.563339,-0.233347 1.219513,0 1.829269,0c0.304886,0 1.196884,-0.151694 2.743896,-0.304878c0.910187,-0.090127 2.080414,-0.148249 2.743912,-0.304878c0.890167,-0.210138 1.219513,-0.304878 1.829269,-0.304878c0.914627,0 1.524384,0 1.829269,0c0.304871,0 0.609756,0 0.914627,0c0.914642,0 1.524399,0 2.134155,0c0.304871,0 0.914627,0 1.219513,0c0.609756,0 0.914627,0 1.524384,-0.304878c0,0 0.304886,0 0.609756,0c0.304886,0 0.304886,0 0.609756,0c0,0 0.304871,0 0.609756,0c0.304871,0 0.914627,0 1.524384,0c0.609756,0 1.524399,0 2.134155,0c0.914627,0 1.219513,0 1.829269,0c0.609756,0 1.219513,0 2.13414,0c0.609756,0 1.219513,0.304878 2.134155,0.304878c0.609756,0 1.219513,0.304878 2.439026,0.304878c0.609756,0 0.914627,0.304878 1.219513,0.304878c0,0 0.215576,0.089297 0,0.304878c-0.215591,0.215587 -0.821182,0.139879 -1.219513,0.304878c-0.281677,0.116676 -0.556015,0.148249 -1.219513,0.304878c-0.296722,0.070048 -0.609756,0 -1.219513,0c-0.609756,0 -1.524399,0 -2.439026,0c-1.829269,0 -2.439026,0 -3.353668,0c-1.219513,0 -2.439026,0 -3.048782,0c-0.914627,0 -1.524384,0 -1.829254,0c-0.304886,0 -0.914642,0 -0.914642,0c0,0 -0.008148,0.234833 -0.304871,0.304878c-0.663498,0.156629 -1.219513,0.304878 -1.829269,0.609756l0,0l0,0" id="svg_10" fill-opacity="null" stroke-opacity="null" stroke-width="2" stroke="#000" fill="none"/>
  <path d="m195.426849,4.955217c-0.304886,0 -0.609756,0 -0.914642,0c-0.304871,0 -0.914627,0 -1.524384,0c-0.304886,0 -0.860901,-0.453127 -1.524399,-0.609756c-0.890167,-0.210138 -1.219513,-0.304878 -1.524384,-0.304878c-0.609756,0 -0.609756,-0.304878 -0.914642,-0.304878c-0.304871,0 -0.304871,0 -0.609756,0c-0.609741,0 -0.914627,0 -0.914627,-0.304878c0,0 -0.304871,0 -0.304871,0l0,0l-0.304886,0.304878" id="svg_12" fill-opacity="null" stroke-opacity="null" stroke-width="2" stroke="#000" fill="none"/>
  <path d="m231.56543,4.360562c0.220749,0 0.220749,0 0.662247,0c0.220749,0 0.662247,0 0.882996,0c0.441498,0 0.882996,0 1.103745,0c0.220749,0 0.441498,0 0.662247,0c0.220749,0 0.662247,0 0.882996,0c0.441498,0 0.662247,0 0.882996,0c0.220749,0 0.441498,0 0.441498,0c0,-0.220748 0.220749,-0.220748 0.220749,0c0,0.220749 0.0168,0.357021 0.220749,0.441498c0.288422,0.119468 0.220749,0.441497 0.220749,0.441497c0.220749,0.220749 0.220749,0.220749 0.441498,0.220749c0,0 0,0 0,0c0.220749,0 0.220749,0 0.220749,0c0.220749,0 0.2854,0.064656 0.441498,0.220748c0.156097,0.156093 0.458298,-0.084477 0.662247,0c0.288422,0.119468 0.441498,0.220749 0.441498,0.220749c0.220749,0 0.064651,0.064656 0.220749,0.220749c0.156097,0.156093 0.220749,0 0.220749,0c0,0 0,-0.220749 0,-0.220749c0,-0.220749 -0.153076,-0.542778 -0.441498,-0.662246c-0.203949,-0.084477 -0.441498,-0.220749 -0.662247,-0.441497c-0.220749,-0.220749 -0.441498,-0.441498 -0.441498,-0.441498c-0.220749,0 -0.220749,-0.220748 -0.220749,-0.220748c-0.220749,0 -0.220749,0 -0.220749,0c0,0 -0.220749,0 -0.220749,0c0,0 0,0 0,0.220748c0,0.220749 0,0.220749 0,0.441498c0,0 0,0.220748 0,0.441497l0.220749,0l0,0l0.220749,0" id="svg_15" fill-opacity="null" stroke-opacity="null" stroke-width="2" stroke="#000" fill="none"/>
  <path d="m240.395386,4.360562c0,0 1.545227,0 4.194214,0c2.869736,0 3.97348,0 5.739471,0c1.103745,0 1.98674,0 2.428238,0c0.441498,0 0.882996,0 1.103745,0c0.441498,0 0.662247,0 0.882996,0c0,0 0.220749,0 0.220749,0c0.220749,0 0.220749,0 0.441498,0c0,0 0.226456,0.150027 0.662247,0.220749c0.689026,0.111818 1.783295,0.39511 2.428223,0.662246c0.456024,0.188898 0.506165,0.285405 0.662262,0.441497c0.156097,0.156082 0.441498,0 0.441498,0c0.220734,0.220749 0.453308,0.119314 0.882996,0.220749c0.480408,0.113408 1.12146,0.068593 1.765991,0.220749c0.480408,0.113408 0.594574,0.32203 0.882996,0.441497c0.203918,0.084467 0.441498,0.220749 0.662231,0.220749l0,0.220748l0.220764,0" id="svg_17" fill-opacity="null" stroke-opacity="null" stroke-width="2" stroke="#000" fill="none"/>
  <path d="m237.084152,4.581311c0,0 0.220749,0 0.441498,0c0.662247,0 0.882996,0 1.324493,0c0.220749,0 0.662247,0 0.882996,0c0.220749,0 0.441498,0 0.882996,0c0.220749,0 0.662247,0 0.88298,-0.220749c0,0 0.220749,0 0.220749,0c0.220749,0 0.441498,0 0.441498,0c0.220749,0 0.220749,0 0.220749,0c0.220749,0 0.220749,0 0.441498,0c0,0 0.220749,0 0.220749,0c0.220749,0 0.882996,0 1.545242,0c0.662247,0 1.545242,0 2.428238,0c0.662247,0 1.545242,0 2.428238,0c0.220749,0 0.441498,0 0.441498,0c0.220749,0 0.220749,0 0.220749,0c0.220749,0 0.441498,0 0.662247,0c0.441498,0 0.882996,0 1.545242,0c0.441498,0 1.103745,0 1.545242,0c0.441498,0 0.882996,0 1.324493,0c0.220749,0 0.441498,0 0.662247,0c0.220749,0 0.441483,0 0.441483,0c0.220764,0 0.441498,0 0.662262,0c0.220734,0 0.441498,0 0.882996,0c0.441498,0 0.882996,0 1.324493,0c0.441498,0 0.882996,0 1.324493,0c0.441498,0 0.662231,0 0.882996,0c0.220734,0 0.662231,0 0.882996,0c0.441498,0 0.882996,0 1.103729,0c0.220764,0 0.441498,0 0.662262,0c0,0 0.064636,0.156082 0.220734,0c0.156097,-0.156093 0,-0.220748 0.220764,-0.220748c0,0 0,0 0,0c0.220734,0 0.220734,0 0.220734,0c0,0 0,0 -0.220734,0c0,0 0,0 -0.220764,0c-0.220734,0 -0.220734,0.220748 -0.441498,0.220748l-0.220734,0.220749l-0.220764,0.220749" id="svg_18" fill-opacity="null" stroke-opacity="null" stroke-width="2" stroke="#000" fill="none"/>
  <path d="m11.28106,4.924117c0,0 -0.191205,0 -0.191205,0c-0.191204,0 -0.191204,0 -0.382408,0c0,0 -0.056003,-0.135202 -0.191205,0c-0.135201,0.135202 -0.191204,0.191204 -0.191204,0.191204c0,0 -0.191205,0.191205 -0.191205,0.191205c-0.191204,0 -0.382409,0 -0.382409,0c-0.191204,0.191205 -0.191204,0.191205 -0.191204,0.191205c0,0 -0.191205,0.191205 -0.191205,0.191205c0,0 -0.191204,0 -0.191204,0c0,0 0,0.191205 -0.191204,0.191205c0,0 0,0 0,0.191205c0,0 -0.056003,0.056002 -0.191205,0.191204c-0.135202,0.135202 0,0.191205 0,0.191205c0,0.191205 -0.191204,0.191205 -0.191204,0.382409c0,0 0,0 -0.191205,0.191205c0,0 0,0.191205 -0.191204,0.382409c0,0 0,0 0,0.191205c0,0 0,0 0,0c0,0.191204 0.135202,0.247207 0,0.382409c-0.135202,0.135202 -0.191205,0 -0.191205,0.191204c0,0 0,0 0,0c0,0.191205 0,0.191205 0,0.191205c0,0.191204 0,0.191204 0,0.382409c0,0 0.073171,0.205758 0,0.382408c-0.103479,0.249821 -0.191204,0.191205 -0.191204,0.382409c0,0 0,0 0,0.191205c0,0 0,0 0,0.191204c0,0 0,0.191205 0,0.191205c0,0 0,0.191204 0.191204,0.191204c0,0 0,0.191205 0,0.191205c0.191205,0 0.118034,0.396963 0.191205,0.573613c0.103478,0.24982 0.191204,0.191204 0.191204,0.382409c0,0 0.191205,0 0.191205,0.191204c0,0 0,0 0,0c0.191204,0.191205 0.06453,0.441683 0.382409,0.956022c0.142159,0.23002 0.382408,0.382409 0.382408,0.573614c0,0 0,0 0,0c0.191205,0 0.191205,0.191204 0.191205,0.191204c0,0 0,0 0.191204,0c0,0 0,0 0,0c0.191205,0 0.191205,0 0.191205,0c0,0 0,-0.191204 0,-0.573613c0,-0.191205 0,-0.382409 0,-0.764818c0,-0.191204 0.08786,-0.392639 0,-0.764818c-0.09823,-0.416109 -0.191205,-0.573613 -0.191205,-0.764817c0,-0.191205 0,-0.573614 0,-0.764818c0,-0.191205 0,-0.191205 0,-0.191205c0,-0.191204 -0.191204,-0.382409 -0.191204,-0.382409c0,0 0,-0.191204 0,-0.191204c-0.191205,-0.191204 -0.191205,-0.382409 -0.191205,-0.382409c0,0 -0.056003,0.135201 -0.191204,0c-0.135201,-0.135201 0,-0.191204 0,-0.191204c0,0 0,-0.191205 0,-0.191205c0,0 0,0 0,-0.191204c0,0 -0.056003,0.135201 -0.191204,0c-0.135202,-0.135202 0,0 0,0c0,0.191204 0,0.191204 0,0.382409c0,0 0,0.191204 0,0.191204c0,0.191205 0.135201,0.438412 0,0.573613c-0.135202,0.135202 -0.191205,0.191205 -0.191205,0.382409c0,0 0,0.191205 -0.191204,0.382409c0,0 0,0.191205 0,0.382409c0,0 0,0.191205 0,0.191205c-0.191205,0.191204 -0.191205,0.191204 -0.191205,0.382408c0,0 0,0.191205 0,0.191205c-0.191204,0.191204 -0.191204,0.191204 -0.191204,0.191204c0,0 0,0 0,0.191205c0,0 0,0 0,0.191204c0,0 0,0 0,0c0,0.191205 -0.191205,0.191205 -0.191205,0.382409c0,0 0,0 0,0.191205c0,0 0,0 0,0.191204c0,0 0,0 0,-0.191204c0,0 0,0 0,-0.191205c0,0 -0.191204,0 -0.191204,0c0,0 0,-0.191204 0,-0.191204c-0.191205,-0.191205 -0.191205,-0.191205 -0.191205,-0.191205c0,-0.191204 0,-0.191204 0,-0.382409c0,0 0,-0.191204 0,-0.191204c-0.191205,0 -0.118034,-0.20576 -0.191205,-0.382409c-0.103479,-0.249821 -0.191205,-0.191204 -0.191205,-0.191204c-0.191205,-0.191205 -0.191205,-0.382409 -0.191205,-0.382409c-0.191205,-0.191205 -0.191205,-0.191205 -0.382409,-0.382409c-0.191205,-0.191205 -0.540043,-0.018717 -0.764818,-0.382409c-0.100523,-0.162648 0,-0.191205 -0.191205,-0.191205c0,0 0,0 0,-0.191204c0,0 0,0 0,-0.191204c0,0 0,0 0,-0.191205c0,0 0,0 0,-0.191204c0,0 -0.135202,-0.056003 0,-0.191205c0.135202,-0.135202 0.247207,-0.056003 0.382409,-0.191204c0.135202,-0.135202 0.056002,-0.056003 0.191205,-0.191205c0.135202,-0.135202 0.056002,-0.056002 0.191204,-0.191204c0.135202,-0.135202 0.191205,0 0.191205,0c0,-0.191205 0.056003,-0.056003 0.191205,-0.191205c0.135202,-0.135202 0.191205,-0.191205 0.191205,-0.191205c0,0 0.056003,-0.056003 0.191205,-0.191205c0.135202,-0.135202 0.191205,-0.191205 0.191205,-0.191205c0,0 0,0 0,0c0,0 0.157635,-0.018716 0.382409,-0.382409c0.100522,-0.162648 0.382409,-0.382409 0.382409,-0.382409c0.191204,-0.191205 0.191204,-0.191205 0.382409,-0.191205c0,0 0.191204,0.191204 0.191204,0c0,-0.191204 -0.191204,0 -0.191204,0c-0.191205,0.191205 -0.205759,0.309238 -0.382409,0.382409c-0.249821,0.103479 -0.191205,0.382409 -0.191205,0.382409c0,0.191205 -0.118033,0.205759 -0.191204,0.382409c-0.103479,0.249821 -0.118034,0.205759 -0.191205,0.382409c-0.103479,0.249821 -0.191205,0.382409 -0.191205,0.382409c-0.191205,0.191205 -0.056003,0.247208 -0.191205,0.382409c-0.135202,0.135202 -0.191205,0 -0.382409,0.191205c0,0 0,0 -0.191205,0.191204c0,0 0.135202,0.056003 0,0.191205c-0.135202,0.135202 -0.247207,-0.135201 -0.382409,0c-0.135202,0.135201 -0.191205,0.191204 -0.191205,0.191204c0,0.191204 0,0.191204 -0.191205,0.191204c0,0 0,0.191205 0,0.191205c-0.191205,0 -0.191205,0 -0.191205,0.191204c0,0 0,0 0,0c0,0 0,0.191205 0,0.191205c0,0 0,0.191204 -0.191205,0.191204c0,0 0,0 0,0.191205c0,0 0,0 0,0.191204c0,0 0,0 0,0c0,0.191205 0,0.191205 0.191205,0.191205c0,0 0,0.191204 0,0.191204c0.191205,0 0.191205,0 0.382409,0c0,0 0,0.191204 0.191205,0.191204c0,0 0,0 0.191204,0c0,0 0.191205,0 0.191205,0c0,0 0.191205,0 0.191205,0c0,0 0.191205,0 0.191205,0c0,0 0,0.191205 0.191205,0.191205c0,0 0,0 0,0c0.191205,0 0.191205,0.191204 0.382409,0.191204c0,0 -0.135202,0.056003 0,0.191205c0.135202,0.135202 0.132418,0.226769 0.382409,0.573613c0.158109,0.219364 0.382409,0.382409 0.382409,0.382409c0,0.191204 0,0.191204 0,0.191204c0,0 0.191205,0 0.191205,0c0,0 0.191204,0 0.191204,0c0,0 -0.135202,0.056003 0,0.191205c0.135202,0.135202 0.191205,0 0.191205,0c0,0 -0.191205,0 -0.191205,0c-0.382409,0 -0.573613,0 -0.764818,0c0,0 -0.191204,0 -0.382409,0c0,0 -0.191205,-0.191205 -0.191205,-0.191205c-0.191205,0 -0.191205,0 -0.382409,-0.191204c0,0 0,0 0,0c-0.191205,0 -0.191205,-0.191204 -0.191205,-0.191204c0,0 -0.191205,0 -0.191205,0c0,0 0,-0.191205 0,-0.191205c0,0 0,-0.191204 0,-0.191204c0,0 -0.191205,-0.191205 -0.191205,-0.191205c0,0 0,-0.191204 0,-0.191204c0,-0.191205 -0.191204,-0.191205 -0.191204,-0.191205c0,-0.191204 0,-0.382409 0,-0.382409c0,0 0,0 -0.191205,0c0,0 0,0 -0.191205,0c0,0 0,0 0.191205,0c0,0 0.191205,0.191205 0.191205,0.191205c0.191204,0 0.382409,0.191204 0.573613,0.191204c0,0 0.191205,0.191205 0.382409,0.191205c0,0 0,0 0.191205,0.191204c0,0 0,0 0,0c0,0.191205 0.191205,0.191205 0.191205,0.382409c0,0 0,0 0,0c0.191205,0.191205 0.382409,0.382409 0.382409,0.382409c0.191205,0 0.191205,0 0.191205,0c0.191204,0 0.382409,0 0.382409,0c0,0 0.191204,0 0.191204,0c0.191205,0 0.343595,0.049045 0.573613,0.191204c0.514339,0.31788 0.764818,0.382409 0.764818,0.382409c0.191205,0.191205 0.191205,0.191205 0.191205,0.191205c0,0 0,0.191204 0.191204,0.191204c0,0 0.191205,0 0.191205,0c0,0.191205 0.191204,0.191205 0.191204,0.191205c0,0 0.191204,0.191204 0.382409,0.191204c0,0 0.191204,0 0.191204,0c0.191205,0 0.191205,0.191205 0.382409,0.191205c0.191205,0 0.191205,0 0.191205,0c0.191204,0.191204 0.411517,0.044863 0.764817,0.191204c0.249821,0.103478 0.191205,0.191204 0.382409,0.191204c0,0 0.191205,0 0.191205,0c0.191204,0 0.396964,0.118034 0.573613,0.191205c0.24982,0.103478 0.382409,0.191204 0.573613,0.191204c0.191205,0 0.191205,0 0.382409,0c0,0 0.191205,0 0.573614,0c0.573613,0 1.113526,0.092975 1.529635,0.191205c0.372181,0.08786 0.706202,0.087726 0.956022,0.191204c0.529951,0.219513 0.985132,-0.146342 1.338432,0c0.249821,0.103479 0.382408,0.191205 0.382408,0.191205c0.191204,0 0.191204,0 0.573614,0c0.382408,0 0.764818,0 1.147226,0c0.38241,0 0.573614,0 0.764818,0c0,0 0,0 0.38241,0c0.382408,0 0.956022,0.191204 1.33843,0.191204c0.191204,0 0.382408,0 0.382408,0c0.191206,0 0.38241,0 0.573614,0c0.38241,0 0.764818,0 0.956022,0c0.191204,0 0.38241,0 0.38241,0c0,0 0.382408,0 0.956022,0c0.382408,0 0.956022,0 0.956022,0c0.191204,0 0.191204,0 0.382408,0c0,0 0.38241,0 0.956022,0c0.38241,0 0.573614,0 0.764818,0c0.191206,0 0.38241,0 0.38241,0c0.191204,0 0.573612,0 1.33843,0c0.573616,0 1.338432,0 1.72084,0c0.191204,0 0.382408,0 0.573616,0c0.382408,0 1.147224,0 1.529633,0c0.382412,0 0.573616,0 0.573616,0c0.191204,0 0.191204,0 0.382408,0c0.191204,0 1.147228,0 1.338432,0c0.573612,0 0.95602,0 1.147224,0c0,0 0.191208,0 0.191208,0c0.382408,-0.191204 0.98513,-0.044863 1.338428,-0.191204c0.249821,-0.103479 0.573616,-0.191205 0.573616,-0.191205c0,0 0.193672,0.030627 0.382408,0c0.596832,-0.096852 1.124008,-0.285556 1.72084,-0.382409c0.188736,-0.030627 0.382408,0 0.382408,0c0.191204,0 0.191204,-0.191204 0.76482,-0.191204c0.573612,0 0.764816,0 0.95602,0c0.191204,0 0.392639,0.087859 0.764816,0c0.416111,-0.09823 0.573616,-0.191205 0.956024,-0.191205c0.382408,0 0.539913,-0.092975 0.956024,-0.191204c0.372177,-0.087858 0.573612,0 0.95602,0c0.382408,0 0.514999,-0.087726 0.76482,-0.191204c0.176651,-0.073171 0.382408,0 0.573612,0c0.191204,0 0.382408,0 0.573612,0c0.191204,0 0.191204,0 0.382412,0c0.191204,0 0.191204,0 0.382408,0c0,0 0.135201,0.056003 0,0.191204c-0.135201,0.135201 -0.382408,0 -0.76482,0c-0.191204,0 -0.573612,0 -0.95602,0c-0.573616,0 -1.147228,0 -2.294456,0c-0.95602,0 -2.481995,-0.023438 -3.632885,-0.191204c-1.525417,-0.222363 -2.485657,-0.382409 -2.676861,-0.382409c-0.956024,0 -1.529636,0 -1.912045,0c-0.382412,0 -0.76482,0 -0.956024,0c-0.382408,0 -0.573612,0 -0.95602,0c-0.191208,0 -0.573616,0 -0.956024,0c-0.382408,0 -0.764816,0 -1.529636,0c-0.573612,0 -1.304733,0.092975 -1.72084,0.191204c-0.558266,0.131789 -0.95602,0 -1.338432,0c-0.573612,0 -0.731115,0.092975 -1.147226,0.191205c-0.372179,0.087859 -0.764818,0 -1.72084,0c-0.573612,0 -1.345837,-0.091883 -1.912045,0c-0.596834,0.096852 -0.956022,0.191204 -1.147226,0.191204c-0.38241,0 -0.764818,0 -0.764818,0c-0.191204,0 -0.38241,0 -0.764818,0c-0.191204,0 -0.573614,0 -0.956022,0c-0.191204,0 -0.38241,0 -0.573614,0c-0.382408,0 -0.573612,0 -0.764818,0c-0.191204,0 -0.191204,0 -0.191204,0c-0.191204,0 -0.191204,0 -0.382408,0c0,0 0,0 0,0c0.382408,-0.191204 0.731119,-0.475384 1.147226,-0.573613c0.372179,-0.087859 0.766281,-0.138337 1.72084,-0.191205c1.728781,-0.095749 3.050816,-0.432256 5.162521,-0.764818c2.858223,-0.450128 5.914623,-0.859372 8.412998,-1.147226c2.476616,-0.285347 4.199017,-0.434679 6.692158,-0.764818c1.716446,-0.22729 2.885315,-0.201618 3.824089,-0.382409c1.011089,-0.194718 1.539513,-0.451103 2.294453,-0.573613c0.596836,-0.096853 0.7416,-0.476761 1.338432,-0.573614c0.377472,-0.061255 0.573612,-0.191204 0.764816,-0.382408c0,0 0,0 0,-0.191205c0,-0.191204 0,-0.191204 0,-0.382409c0,0 0,0 0,-0.191204c0,-0.191205 0,-0.191205 0,-0.191205c-0.191204,-0.191204 -0.382408,-0.191204 -0.382408,-0.191204c-0.191204,0 -0.382408,0 -0.382408,0c-0.191204,-0.191205 -0.382408,-0.191205 -0.573612,-0.191205c0,0 -0.382408,-0.382409 -0.382408,-0.382409c-0.191208,0 -0.191208,-0.191205 -0.382412,-0.191205c0,0 -0.191204,-0.191205 -0.382408,-0.382409c-0.191204,-0.191205 -0.382408,-0.191205 -0.573612,-0.382409c0,0 -0.02911,-0.044865 -0.382408,-0.191205c-0.249825,-0.103479 -0.573616,-0.382409 -0.76482,-0.573614c0,0 -0.191204,0 -0.382408,0c-0.191204,0 -0.348709,-0.284179 -0.76482,-0.382409c-0.186089,-0.043929 -0.382408,0 -0.382408,0c-0.191204,0 -0.191204,0 -0.191204,0c-0.191204,0 -0.382408,-0.191205 -0.382408,-0.191205c-0.191204,0 -0.191204,0 -0.382408,0c-0.191208,0 -0.382412,0 -0.573616,0c-0.191204,0 -0.382408,-0.191204 -0.573612,-0.191204c-0.191204,0 -0.382408,0 -0.573612,0c0,0 -0.056004,-0.056003 -0.191204,-0.191205c-0.135204,-0.135204 -0.382412,0 -0.573616,0c-0.191204,0 -0.323792,-0.087725 -0.573612,-0.191205c-0.176651,-0.073171 -0.382408,0 -0.573612,0c-0.191208,0 -0.382412,0 -0.573616,0c-0.191204,0 -0.573612,0 -0.573612,0c-0.191204,0 -0.191204,0 -0.382408,0c0,0 -0.191204,0 -0.382412,0c-0.191204,0 -0.382408,0 -0.573612,0c-0.191204,0 -0.382408,0 -0.573612,0c-0.191204,0 -0.382408,0 -0.573616,0c-0.191204,0 -0.382408,0 -0.382408,0c-0.191204,0 -0.382408,0 -0.573612,0c-0.191204,0 -0.573612,0 -0.956024,0c0,0 -0.191204,0 -0.191204,0c0,-0.191205 -0.191204,-0.191205 -0.573612,-0.191205c-0.191204,0 -0.573612,0 -0.76482,0c0,0 0,0 -0.191204,0c0,0 0,0 -0.191204,0c-0.382408,0 -0.573612,-0.191205 -0.764816,-0.191205c-0.191204,0 -0.382408,0 -0.382408,0c-0.191208,0 -0.191208,0 -0.191208,0c-0.191204,0 -0.573612,0 -0.95602,0c-0.382408,0 -0.573612,0 -0.956024,0c-0.191204,0 -0.573612,0 -0.764816,0c-0.191206,0 -0.573614,0 -0.956022,0c-0.191206,0 -0.38241,0 -0.764818,0c0,0 -0.38241,0 -0.573614,0c-0.382408,0 -0.573614,0 -0.764818,0c-0.191204,0 -0.573614,0 -0.764818,0c-0.191204,0 -0.573612,0 -0.764818,0c-0.191204,0 -0.382408,0 -0.573612,0c-0.191206,0 -0.38241,0 -0.573614,0c-0.191204,0 -0.382408,0 -0.764818,0c-0.191204,0 -0.573614,0 -1.147226,0c-0.191204,0 -0.573614,0 -0.956022,0c-0.191204,0 -0.38241,0 -0.573614,0c-0.191204,0 -0.382408,0 -0.573614,0c-0.191204,0 -0.382408,0 -0.382408,0c-0.191204,0 -0.191204,0 -0.382408,0c-0.191206,0 -0.38241,0 -0.573614,0c-0.191204,0 -0.38241,0 -0.764818,0c0,0 -0.191204,0 -0.573614,0c-0.191204,0 -0.382408,0 -0.573612,0c-0.191206,0 -0.38241,0 -0.764818,0c-0.191204,0 -0.573614,0 -0.956022,0c-0.191206,0 -0.38241,0 -0.573614,0c-0.191205,0 -0.382409,0 -0.382409,0c-0.191204,0 -0.191204,0 -0.191204,0c-0.191205,0 -0.191205,0 -0.573614,0c0,0 -0.191204,0 -0.382409,0c0,0 -0.382409,0 -0.573613,0c-0.191204,0 -0.191204,0 -0.382409,0c-0.191204,0 -0.191204,0 -0.382409,0c-0.191204,0 -0.191204,0 -0.382409,0c-0.191204,0 -0.323792,0.087725 -0.573613,0.191205c-0.176649,0.073171 -0.191204,0 -0.382409,0c-0.191204,0 -0.382409,0 -0.382409,0c0,0 -0.191204,0.191205 -0.191204,0.191205c0,0 -0.191205,0 -0.191205,0c-0.191204,0 -0.382408,0 -0.382408,0c-0.191205,0 -0.191205,0 -0.191205,0.191205c0,0 0,0 0,0c-0.191204,0 -0.191204,0 -0.382409,0c-0.191204,0 -0.382409,0.191205 -0.382409,0.191205c-0.191204,0 -0.191204,0 -0.382409,0.191204c0,0 0,0 -0.191204,0c0,0 0,0 0,0c0,0 -0.191204,0 -0.191204,0.191205c0,0 0,0 -0.191205,0.191204c0,0 0,0 -0.191204,0c0,0 0,0.191205 -0.191205,0.191205c0,0 -0.191204,0.191205 -0.382409,0.382409c0,0 -0.191204,0 -0.382409,0.191205c0,0 0,0.191205 0,0.191205c0,0 0,0.191204 0,0.191204c0,0 -0.191205,0 -0.191205,0.191205c0,0 -0.056003,0.056003 -0.191205,0.191205c-0.135202,0.135202 -0.056003,0.247207 -0.191205,0.382409c-0.135202,0.135202 0,0.191205 0,0.191205c0,0 0,0.191205 0,0.191205c0,0 -0.326406,0.056003 -0.191205,0.191205c0.135202,0.135202 0.576019,-0.067771 1.529636,0c1.348619,0.095843 4.548804,0.954157 5.92734,1.147227c0.946781,0.132602 2.684025,0.265598 3.632885,0.382408c0.78245,0.096324 1.533934,0.312323 2.103251,0.382409c0.78245,0.096324 1.715727,0.477951 4.397703,0.573614c0.573248,0.020447 2.103249,0 3.059271,0c2.103251,0 4.971319,0 7.074568,0c1.912045,0 4.397701,0 6.309746,0c2.103252,0 3.824093,0 5.353725,0c1.529636,0 2.485661,0.191204 3.441685,0.191204c1.147224,0 2.132359,0.044864 2.485657,0.191205c0.249821,0.103478 0.382408,0.191204 0.382408,0.191204c0,0 0,0.191204 0,0.191204c0,0 0.135201,0.247208 0,0.382409c-0.135201,0.135201 -0.354248,0.224301 -0.573612,0.382409c-0.346844,0.24999 -0.382408,0.191205 -0.573612,0.382409c0,0 -0.191208,0 -0.191208,0c0,0.191205 0,0.191205 0,0.191205c-0.191204,0 -0.191204,0.191204 -0.191204,0.191204c-0.191204,0 -0.191204,0.191204 -0.191204,0.191204c0,0.191205 0,0.191205 0,0.191205c0,0 0,0.191204 0,0.191204c0,0.191205 -0.07317,0.205759 0,0.382409c0.103477,0.249821 0.191204,0.191205 0.191204,0.191205c0.191204,0 0.191204,0 0.191204,0c0,0 0.191208,0 0.191208,0c0.191204,0 0.191204,0 0.191204,0c0.191204,0 0.382408,0 0.382408,0c0.191204,0 0.382408,0 0.382408,0c0.191204,0 0.323792,0.087726 0.573612,0.191204c0.176651,0.073171 0.382412,0 0.382412,0c0.382408,0 0.382408,0.191205 0.573612,0.191205c0.191204,0 0.382408,0 0.382408,0c0.191204,0 0.382408,0 0.573612,0c0.191208,0 0.382412,0 0.573616,0c0.191204,0 0.191204,0 0.382408,0c0.191204,0 0.382408,0 0.573612,0c0.191208,0 0.382412,-0.191205 0.76482,-0.191205c0.191204,0 0.573612,0 0.764816,0c0.191204,0 0.514999,-0.087726 0.76482,-0.191204c0.353298,-0.146341 0.764816,-0.191205 1.147224,-0.191205c0,0 0.382412,-0.191204 0.573616,-0.191204c0.191204,0 0.382408,0 0.382408,0c0.191204,0 0.494411,0.079199 0.764816,-0.191205c0.135201,-0.135201 0.191204,-0.191204 0.382412,-0.191204c0,0 0.132587,-0.087726 0.382408,-0.191205c0.176651,-0.073171 0.382408,0 0.764816,0c0.191204,0 0.573616,0 1.147228,0c0.382408,0 0.573616,0 0.764816,0c0.191208,0 0.382408,0.1912 0.382408,0c0,-0.1912 -0.621994,0.08798 -1.720837,-0.573613c-1.409111,-0.848399 -2.61245,-1.656563 -4.780113,-2.676863c-0.931629,-0.438508 -2.128677,-0.491301 -2.868069,-0.764818c-0.40099,-0.148335 -0.769932,-0.33848 -0.95602,-0.382409c-0.416111,-0.098229 -1.147228,-0.38241 -1.529636,-0.573613c-0.382412,-0.191205 -0.991589,-0.132419 -1.338432,-0.382409c-0.438725,-0.316216 -0.456379,-0.55786 -0.956024,-0.764818c-0.176651,-0.07317 -0.664295,-0.410965 -0.764816,-0.573613c-0.224773,-0.363692 -0.897408,-0.470134 -1.147228,-0.573614c-0.176651,-0.073171 -0.191204,0 -0.191204,0c-0.191204,0 -0.191204,0 -0.191204,0c0,0 -0.191204,0 -0.191204,0c0,0 -0.191204,0 -0.191204,0c-0.191204,0 -0.382408,0 -0.573612,0c-0.191208,0 -0.191208,0 -0.191208,0c-0.191204,0 -0.191204,-0.191205 -0.382408,-0.191205c-0.191204,0 -0.191204,-0.191204 -0.191204,-0.191204c0,0 0,0 0,0c0,-0.191205 0,-0.191205 0,-0.191205c0,-0.191204 0,-0.191204 0,-0.191204c0,0 0,0 0.191204,-0.191205c0,0 0.191204,0 0.191204,0c0.191204,0 0.382412,0 0.573616,0c0.191204,0 0.382408,0 0.382408,0c0.191204,0 0.191204,0 0.382408,0c0,0 0.191204,0.191205 0.191204,0.191205c0.191204,0 0.348709,0.092974 0.76482,0.191204c0.186089,0.043929 0.573612,0.191205 0.95602,0.191205c0.573616,0 0.966255,0.103344 1.338432,0.191204c0.416107,0.09823 0.731117,0.284179 1.147228,0.382409c0.186089,0.04393 0.578728,-0.04393 0.764816,0c0.416107,0.09823 0.764816,0.382409 1.338432,0.382409c0.764816,0 1.537045,0.099322 2.103249,0.191205c0.596832,0.096853 1.304733,0.284179 1.72084,0.382409c0.558266,0.131789 0.764816,0 0.956024,0c0,0 0,0.191205 0.191204,0.191205c0,0 0,0 0,0.191205c0,0 -0.382412,0 -0.76482,0c-0.95602,0 -2.868065,-0.191205 -4.015293,-0.382409c-1.147228,-0.191205 -2.292309,-0.395759 -3.441681,-0.573613c-1.336121,-0.206751 -2.271233,-0.476761 -2.868069,-0.573614c-0.75494,-0.122509 -1.259232,0.270406 -1.529636,0c-0.135201,-0.135202 -0.191204,-0.191205 -0.191204,-0.191205c0,0 0,0 -0.191204,0c0,0 -0.191204,-0.191204 -0.573612,-0.382409c0,0 -0.247208,0.135202 -0.382408,0c-0.135201,-0.135202 -0.191208,-0.191204 -0.191208,-0.191204c0,0 -0.247208,0.135202 -0.382408,0c-0.135201,-0.135202 0,-0.191205 0,-0.191205c-0.191204,0 -0.191204,0 -0.191204,0c-0.191204,0 -0.191204,0 0,0c0,0 0.191204,0 0.382408,0c0.573616,0 0.956024,0 1.529636,0c0.956024,0 1.544983,0.059414 2.103252,0.191205c0.416107,0.09823 0.573612,0.191204 0.764816,0.191204c0.191204,0 0.382408,0 0.382408,0c0,0 0.191204,0 0.191204,0c0.191204,0 0.573616,0.191205 0.76482,0.191205c0.191204,0 0.573612,0 0.764816,0c0.191204,0 0.382408,0.191204 0.956024,0.191204c0.191204,0 0.191204,0 0.382408,0c0.191204,0 0.573612,0.191205 0.764816,0.191205c0.382412,0 0.578732,-0.04393 0.76482,0c0.416107,0.09823 0.573612,0.191205 0.95602,0.191205c0.191208,0 0.382412,0 0.382412,0c0,0 -0.191204,0 -0.191204,0c-0.382412,0 -0.573616,0 -0.956024,0c-0.382408,0 -0.382408,0 -0.573612,0c-0.382412,0 -0.411522,0.146341 -0.76482,0c-0.249821,-0.103479 -0.382408,-0.191205 -0.382408,-0.191205c-0.382408,0 -0.382408,-0.191205 -0.76482,-0.191205c0,0 -0.191204,-0.191204 -0.382408,-0.191204c-0.191204,0 -0.323792,-0.087726 -0.573612,-0.191205c-0.176651,-0.073171 -0.191204,0 -0.191204,-0.191204c0,0 0,0 -0.191204,0c0,0 -0.191204,0 -0.191204,-0.191205c0,0 0,0 0,-0.191205c0,0 0,0 0,-0.191205c0,0 0.191204,0 0.382408,0c0.191204,0 0.382408,0 0.573612,0c0.191204,0 0.382408,0 0.573612,0c0,0 0.191208,0.191205 0.382412,0.191205c0,0 0.205757,-0.073171 0.382408,0c0.249821,0.103479 0.392639,0.103346 0.764816,0.191205c0.416111,0.09823 0.970577,0.309238 1.147228,0.382409c0.249821,0.103479 0.514996,0.27893 0.76482,0.382409c0.529949,0.219509 0.573612,0 0.764816,0.191205c0,0 -0.191204,0 -0.191204,0c-0.382408,0 -0.573612,0 -0.956024,0c-0.382408,0 -0.764816,0 -1.147224,0c-0.382412,0 -0.785278,0.175718 -1.529636,0c-0.416111,-0.09823 -0.922325,-0.284179 -1.338432,-0.382409c-0.186089,-0.04393 -0.545452,-0.033097 -0.764816,-0.191205c-0.346848,-0.249992 -0.573616,-0.191204 -0.76482,-0.191204c-0.191204,0 -0.382408,-0.191205 -0.573612,-0.191205c-0.191204,0 -0.382408,0 -0.382408,0c0,0 -0.191208,0 -0.382412,0c0,0 0,0 -0.191204,0c-0.191204,0 -0.191204,0 -0.382408,0c-0.191204,0 -0.573612,0 -0.764816,0c-0.191208,0 -0.382412,0 -0.573616,0c-0.382408,0 -0.573612,0 -0.764816,0c0,0 -0.191204,-0.191204 -0.191204,0c0,0.191204 0.191204,0 0.191204,0c0.382408,-0.191205 0.573612,-0.191205 0.95602,-0.191205c0.382412,0 0.779373,0.073171 0.956024,0c0.249821,-0.103479 0.382408,-0.191205 0.573612,-0.191205c0.382408,0 0.76482,0 1.147228,0c0.191204,0 0.573612,0 0.764816,0c0,0 0.191204,0 0.191204,0c0,0 0.191208,0 0.191208,0c0,0 0.191204,0 0.382408,0c0.382408,0 0.7062,0.087725 0.95602,0.191205c0.529953,0.219514 0.76482,0.191205 1.147228,0.191205c0.191204,0 0.573612,0.191205 0.764816,0.191205c0.382412,0 0.602726,0.044862 0.956024,0.191204c0.249821,0.103479 0.578728,0.147276 0.764816,0.191205c0.416111,0.09823 0.726006,0.240249 0.956024,0.382409c0.514339,0.317879 0.769753,0.129949 1.147228,0.191205c0.596832,0.096853 0.780159,0.250621 1.338428,0.382409c0.416111,0.09823 0.583847,0.103345 0.956024,0.191205c0.416107,0.09823 0.7062,0.278929 0.95602,0.382409c0.176655,0.073172 0.382412,0 0.382412,0c0.191204,0 0.191204,0 0.191204,0c-0.191204,0 -0.382408,0 -0.382408,0.191205c0,0.191205 0,0.191205 0,0.191205c0,0 -0.191208,0 -0.191208,0.191205l-0.191204,0l0,0" id="svg_20" fill-opacity="null" stroke-opacity="null" stroke-width="2" stroke="#000" fill="none"/>
  <path d="m19.311649,13.910728c0.191204,0 0.191204,0 0.191204,0c0,0 0.382408,0 0.573614,0c0.573612,0 1.147226,0 1.33843,0c0.764818,0 1.147228,0 1.338432,0c0.191204,0 0.382408,0 0.573612,0l0,0l0,0" id="svg_21" fill-opacity="null" stroke-opacity="null" stroke-width="2" stroke="#000" fill="none"/>
 </g>
</svg>